<svg xmlns="http://www.w3.org/2000/svg" viewBox="0 0 436.36 111.54"><defs><style>.cls-1{font-size:72px;font-family:Poppins-Bold, Poppins;font-weight:700;}.cls-1,.cls-2{fill:#ffff;}.cls-2{fill-rule:evenodd;}</style></defs><g id="Layer_2" data-name="Layer 2"><g id="Layer_1-2" data-name="Layer 1"><text class="cls-1" transform="translate(90.4 67.9)">BeliBesar</text><path class="cls-2" d="M6,6c-6,6-6,15.73-6,35.14S0,70.28,6,76.3s15.73,6,35.14,6,29.11,0,35.13-6,6-15.73,6-35.13,0-29.11-6-35.14S60.57,0,41.17,0,12.06,0,6,6ZM42.8,49.56,52.94,59.69a8,8,0,0,0,2.15,1.82,3.22,3.22,0,0,0,2.44,0,7.86,7.86,0,0,0,2.16-1.82,7.86,7.86,0,0,0,1.82-2.16,3.22,3.22,0,0,0,0-2.44,8,8,0,0,0-1.82-2.15L49.56,42.8l3.09-3.09C55.82,36.54,57.4,35,57,33.25s-2.48-2.47-6.68-4l-14-5.17C27.94,21,23.75,19.43,21.59,21.59S21,27.94,24.06,36.33l5.17,14c1.55,4.2,2.32,6.31,4,6.68s3.29-1.21,6.46-4.38Z"/></g></g></svg>